#!OML:ASF F:\VICON\USERDATA\INSTALL\rory3\rory3.ASF
:FULLY-SPECIFIED
:DEGREES
54
root 0.5521806274571724 18.028470540064404 14.523497463599561 -3.805718238504755 -2.6874322647874216 -4.521211997792635
lfemur -20.92544792203567 -2.886290652452515 -15.496896594595622
ltibia 30.4551390031362
lfoot -4.286088399064721 -1.3135636953256125
ltoes -3.4932430344845087
rfemur 2.7609491772843615 4.487156661939463 29.7038013810147
rtibia 38.32043780359633
rfoot -2.907247906378834 -4.466225189159526
rtoes 8.550949363801584
lowerback 9.109151931707519 1.570241801815858 4.010583251215889
upperback 0.2877577979119392 2.6819181919982675 1.7368634642609089
thorax -4.671266484774764 1.2153257864983225 -0.8767233553517396
lowerneck -15.501961554452633 -3.122330766182862 -1.534410500045289
upperneck 22.873180183109653 -4.011586228951448 0.11778118070377852
head 9.830580437026692 -1.9951141846473355 -0.22721502673932648
lclavicle -9.24286944060251e-16 -7.815077430013324e-16
lhumerus -35.893967855749274 10.022982437150782 78.25755382564309
lradius 7.761956014832009
lwrist -1.4588661507841714
lhand -29.343321806344278 25.337885859371738
lfingers 7.125020000000057
lthumb -2.682813806852806 55.311413894427496
rclavicle -9.24286944060251e-16 -7.815077430013324e-16
rhumerus -20.560383611533734 -21.487583471695935 -75.62254595957776
rradius 15.95412090576896
rwrist 6.66514073258869
rhand -17.290981339006144 31.18571253386619
rfingers 7.125020000000057
rthumb 8.954821633381096 -8.260722715563203
55
root 0.5890875705823988 18.09859437872152 16.108851487512002 -4.393424379873805 -2.8891885405184845 -4.034776299434705
lfemur -20.4702428894441 -3.1440428274790357 -16.432776267925536
ltibia 28.75339085985184
lfoot -4.214542472756804 -1.6068918415482827
ltoes -1.9280701882467977
rfemur 3.1244792165957502 4.051419128367523 28.93101167471448
rtibia 40.672545145786025
rfoot 0.8108158051750132 -4.398916367412864
rtoes 9.560248374369294
lowerback 8.783355463380282 1.6231235281494762 3.804484807191817
upperback 0.2816063472086208 2.7360349351517677 1.6095123789965886
thorax -4.508638832401115 1.2406920961810255 -0.9033582612862513
lowerneck -15.204269790754408 -3.0908058778466967 -1.5460322510072078
upperneck 23.51566365574186 -3.962561827831907 -0.02689201235081118
head 9.988408122186064 -1.984977918016018 -0.26911311329779986
lclavicle -9.228932060015641e-16 -7.804556555393677e-16
lhumerus -36.327861455512206 11.331475142583367 77.4318824111753
lradius 3.9874652036674902
lwrist -2.4946679547514137
lhand -29.309244028363196 26.132939668927534
lfingers 7.125020000000057
lthumb -2.6498940631156276 56.10667100609288
rclavicle -9.228932060015637e-16 -7.804556555393679e-16
rhumerus -19.702297542613305 -22.896608344243386 -74.83402944231831
rradius 13.176450552049353
rwrist 7.577453658214156
rhand -17.12904050580635 30.571394323485613
rfingers 7.125020000000057
rthumb 9.111017873534387 -8.526411280741431
56
root 0.6121297826291303 18.167126507631977 17.710347567720333 -4.970473041977224 -3.13654428493015 -3.402860488769341
lfemur -19.34162152620991 -3.4787935066101685 -17.58097013758208
ltibia 26.676654410048677
lfoot -4.730270877605232 -1.4905531543871144
ltoes -0.8443848061729966
rfemur 2.1441544408444972 3.3699240377919257 27.90253029719016
rtibia 44.36137582793572
rfoot 3.6938745350022173 -4.454462164833996
rtoes 10.776961336658433
lowerback 8.53909226584722 1.6246870329363183 3.4104682515331906
upperback 0.30596835345085344 2.6963205898657394 1.4621573934197234
thorax -4.367295119281298 1.2267234810743186 -0.8225280252129977
lowerneck -14.947662084593034 -3.015863700493054 -1.54551899635053
upperneck 24.094124644644527 -3.8592967571052235 -0.15682685574800193
head 10.12907768964637 -1.9462832863939354 -0.30117113996710476
lclavicle -9.205593844508146e-16 -7.787214982583232e-16
lhumerus -36.25395181408424 12.487160295996027 76.64092327674499
lradius 0.4776557085174886
lwrist -3.252054605846979
lhand -29.31078531283424 26.903091817660254
lfingers 7.125020000000057
lthumb -2.6513842602045283 56.87349551587352
rclavicle -9.205593844508144e-16 -7.787214982583231e-16
rhumerus -19.148193647885005 -24.417000770982384 -74.09096991748294
rradius 10.354129768640817
rwrist 8.63505285237223
rhand -16.99889074249446 30.016831448695953
rfingers 7.125020000000057
rthumb 9.23643860981685 -8.644128175315322
57
root 0.6221982743080455 18.22329923322769 19.116447448272496 -5.469005808024234 -3.2892653326505124 -2.6394084407395226
lfemur -17.433096633260977 -3.8322639263360045 -18.941280601793828
ltibia 24.42888909181957
lfoot -5.847204661343026 -1.0720892547787209
ltoes -0.09602085795625204
rfemur -0.4074402761424558 2.4842303532449437 26.640606303209868
rtibia 48.82653348075248
rfoot 5.132021918603124 -4.735338676746569
rtoes 11.654299419175137
lowerback 8.403508309784879 1.5391975021033937 2.7833223882991334
upperback 0.3537189962999758 2.5053087541986017 1.3064558872083196
thorax -4.268312912858924 1.1472698616908876 -0.5871650366431248
lowerneck -14.76255411480371 -2.9098430590188564 -1.5548683051602874
upperneck 24.527697202742786 -3.7145998336443933 -0.24809847606698598
head 10.232220724159735 -1.8839645459155603 -0.31351342122408365
lclavicle -9.315833691337345e-16 -7.873586047688254e-16
lhumerus -35.567505950095885 13.045465509713255 76.02497200860132
lradius -2.1563200661505064
lwrist -3.668777121571374
lhand -29.341815690886225 27.539404473042254
lfingers 7.125020000000057
lthumb -2.6813597328637195 57.505420824660376
rclavicle -9.315833691337345e-16 -7.873586047688254e-16
rhumerus -19.103524097862657 -25.920201848286506 -73.46109191968009
rradius 7.877398195164531
rwrist 9.650771436255592
rhand -16.90041607945659 29.624769002591492
rfingers 7.125020000000057
rthumb 9.331234543890425 -8.631981156423095
58
root 0.6290414825883797 18.27303208241963 20.5674079196099 -5.9358394309213995 -3.4531609502387846 -1.8463937500102654
lfemur -14.897074416087781 -4.268357409167822 -20.35667119164689
ltibia 21.688247953715567
lfoot -7.010441052657995 -0.5569299852777352
ltoes 0.3538371896847172
rfemur -3.8796978387705767 1.4854748032249696 25.321426662490648
rtibia 53.41674058829574
rfoot 5.440665060603745 -5.038478918934918
rtoes 12.028777696338341
lowerback 8.277181097941419 1.3880495979708605 2.0504223668999852
upperback 0.4145599436704505 2.2054119026912 1.1657231854579266
thorax -4.164848611257823 1.0206963504132847 -0.24472817331198826
lowerneck -14.58792499753569 -2.7608608924799505 -1.5662175455572493
upperneck 24.940324370793142 -3.508271939339902 -0.34571804690444097
head 10.328740317953276 -1.7925671180265905 -0.3203947601644246
lclavicle -9.442653781928637e-16 -7.972357070227676e-16
lhumerus -34.26453529102821 13.438393593139905 75.34684780792368
lradius -4.9167992932403095
lwrist -4.1636872705006205
lhand -29.373488294710544 28.262392317972434
lfingers 7.125020000000057
lthumb -2.7119660640177914 58.22388508887507
rclavicle -9.442653781928635e-16 -7.972357070227678e-16
rhumerus -19.330791655523335 -27.640807331329135 -72.72109821985829
rradius 5.0257299397059825
rwrist 10.778850723645501
rhand -16.79376221066663 29.343964838784142
rfingers 7.125020000000057
rthumb 9.433890956775478 -8.589237637622388
